<svg width="20.000000" height="20.000000" viewBox="0 0 20 20" fill="none" xmlns="http://www.w3.org/2000/svg" xmlns:xlink="http://www.w3.org/1999/xlink">
	<desc>
			Created with Pixso.
	</desc>
	<defs/>
	<path id="Vector" d="M12.0254 15.6875C11.8672 15.6875 11.709 15.625 11.584 15.5C11.3418 15.2578 11.3418 14.8594 11.584 14.6172L16.2012 10L11.584 5.38281C11.3418 5.14062 11.3418 4.74219 11.584 4.5C11.8262 4.25781 12.2246 4.25781 12.4668 4.5L17.5254 9.5625C17.7676 9.80469 17.7676 10.2031 17.5254 10.4453L12.4668 15.5C12.3418 15.625 12.1836 15.6875 12.0254 15.6875Z" fill="#515151" fill-opacity="1.000000" fill-rule="nonzero"/>
	<path id="Vector" d="M16.9414 10.625L2.91602 10.625C2.57422 10.625 2.29102 10.3438 2.29102 10C2.29102 9.65625 2.57422 9.375 2.91602 9.375L16.9414 9.375C17.2832 9.375 17.5664 9.65625 17.5664 10C17.5664 10.3438 17.2832 10.625 16.9414 10.625Z" fill="#515151" fill-opacity="1.000000" fill-rule="nonzero"/>
	<g opacity="0.000000"/>
</svg>
