<svg width="23" height="23" viewBox="0 0 23 23" fill="none" xmlns="http://www.w3.org/2000/svg">
<path d="M14.4673 22.375H8.3452C2.80471 22.375 0.4375 20.0078 0.4375 14.4673V8.3452C0.4375 2.80471 2.80471 0.4375 8.3452 0.4375H14.4673C20.0078 0.4375 22.375 2.80471 22.375 8.3452V14.4673C22.375 20.0078 20.0078 22.375 14.4673 22.375ZM8.3452 1.96802C3.6414 1.96802 1.96802 3.6414 1.96802 8.3452V14.4673C1.96802 19.1711 3.6414 20.8445 8.3452 20.8445H14.4673C19.1711 20.8445 20.8445 19.1711 20.8445 14.4673V8.3452C20.8445 3.6414 19.1711 1.96802 14.4673 1.96802H8.3452Z" fill="#515151"/>
<path fill-rule="evenodd" clip-rule="evenodd" d="M11.2224 6.18727C10.2814 6.35269 9.38104 6.91228 8.78259 7.70371C8.255 8.40143 7.92803 9.26615 7.81096 10.2731C7.64019 11.7422 8.30962 13.5239 9.36051 14.3975C10.7448 15.5482 12.4421 15.647 13.8981 14.6615C14.2658 14.4127 14.7839 13.8787 14.849 13.6815C14.9925 13.2464 14.6455 12.7751 14.1811 12.7748C13.952 12.7746 13.8888 12.8129 13.3746 13.2628C13.0057 13.5856 12.6995 13.7561 12.3077 13.8568C11.1026 14.1666 9.88576 13.3485 9.34893 11.8679C9.23809 11.5623 9.21766 11.4322 9.19882 10.913C9.166 10.0092 9.32195 9.36894 9.72774 8.74102C10.2989 7.85736 11.325 7.40264 12.2927 7.60446C12.7079 7.69106 13.0665 7.89465 13.4515 8.26246C13.8704 8.66251 13.9417 8.70554 14.1849 8.70554C14.5017 8.70554 14.7426 8.51952 14.8509 8.19125C14.927 7.96059 14.8691 7.76523 14.6418 7.48624C14.2083 6.95403 13.4585 6.46888 12.7664 6.27277C12.3866 6.1652 11.5969 6.12146 11.2224 6.18727ZM8.18742 16.1111C8.11153 16.1442 7.99211 16.2463 7.92206 16.3382C7.81644 16.4766 7.79472 16.5478 7.79472 16.7552C7.79472 16.9628 7.81644 17.0339 7.92219 17.1725C8.15186 17.4736 8.02758 17.4629 11.2844 17.4629C13.2498 17.4629 14.2654 17.4473 14.3486 17.416C14.6587 17.299 14.8843 16.9351 14.8291 16.6408C14.7939 16.4533 14.5682 16.1878 14.3757 16.1073C14.1647 16.0192 8.39056 16.0227 8.18742 16.1111Z" fill="#515151"/>
</svg>
