<svg width="26" height="26" viewBox="0 0 26 26" fill="none" xmlns="http://www.w3.org/2000/svg">
<path d="M8.66675 6.22656C8.22258 6.22656 7.85425 5.85823 7.85425 5.41406V2.16406C7.85425 1.7199 8.22258 1.35156 8.66675 1.35156C9.11091 1.35156 9.47925 1.7199 9.47925 2.16406V5.41406C9.47925 5.85823 9.11091 6.22656 8.66675 6.22656Z" fill="#515151"/>
<path d="M17.3333 6.22656C16.8891 6.22656 16.5208 5.85823 16.5208 5.41406V2.16406C16.5208 1.7199 16.8891 1.35156 17.3333 1.35156C17.7774 1.35156 18.1458 1.7199 18.1458 2.16406V5.41406C18.1458 5.85823 17.7774 6.22656 17.3333 6.22656Z" fill="#515151"/>
<path d="M9.20833 15.7075C9.0675 15.7075 8.92667 15.675 8.79667 15.6209C8.65583 15.5667 8.5475 15.4909 8.43917 15.3934C8.24417 15.1875 8.125 14.9167 8.125 14.6242C8.125 14.4834 8.1575 14.3425 8.21167 14.2125C8.26584 14.0825 8.34167 13.9634 8.43917 13.855C8.5475 13.7575 8.65583 13.6817 8.79667 13.6275C9.18667 13.465 9.67417 13.5517 9.9775 13.855C10.1725 14.0609 10.2917 14.3425 10.2917 14.6242C10.2917 14.6892 10.2808 14.765 10.27 14.8409C10.2592 14.9059 10.2375 14.9709 10.205 15.0359C10.1833 15.1009 10.1508 15.1659 10.1075 15.2309C10.075 15.285 10.0208 15.3392 9.9775 15.3934C9.77167 15.5884 9.49 15.7075 9.20833 15.7075Z" fill="#515151"/>
<path d="M13.0001 15.7045C12.8592 15.7045 12.7184 15.672 12.5884 15.6179C12.4476 15.5637 12.3392 15.4879 12.2309 15.3904C12.0359 15.1845 11.9167 14.9137 11.9167 14.6212C11.9167 14.4804 11.9493 14.3395 12.0034 14.2095C12.0576 14.0795 12.1334 13.9604 12.2309 13.852C12.3392 13.7545 12.4476 13.6787 12.5884 13.6245C12.9784 13.4512 13.4659 13.5487 13.7692 13.852C13.9642 14.0579 14.0834 14.3395 14.0834 14.6212C14.0834 14.6862 14.0726 14.762 14.0617 14.8379C14.0509 14.9029 14.0292 14.9679 13.9967 15.0329C13.9751 15.0979 13.9426 15.1629 13.8993 15.2279C13.8668 15.282 13.8126 15.3362 13.7692 15.3904C13.5634 15.5854 13.2817 15.7045 13.0001 15.7045Z" fill="#515151"/>
<path d="M16.7916 15.7045C16.6508 15.7045 16.5099 15.672 16.3799 15.6179C16.2391 15.5637 16.1308 15.4879 16.0224 15.3904C15.9791 15.3362 15.9357 15.282 15.8924 15.2279C15.8491 15.1629 15.8166 15.0979 15.7949 15.0329C15.7624 14.9679 15.7408 14.9029 15.7299 14.8379C15.7191 14.762 15.7083 14.6862 15.7083 14.6212C15.7083 14.3395 15.8274 14.0579 16.0224 13.852C16.1308 13.7545 16.2391 13.6787 16.3799 13.6245C16.7808 13.4512 17.2574 13.5487 17.5608 13.852C17.7558 14.0579 17.8749 14.3395 17.8749 14.6212C17.8749 14.6862 17.8641 14.762 17.8533 14.8379C17.8424 14.9029 17.8207 14.9679 17.7882 15.0329C17.7666 15.0979 17.7341 15.1629 17.6908 15.2279C17.6583 15.282 17.6041 15.3362 17.5608 15.3904C17.3549 15.5854 17.0733 15.7045 16.7916 15.7045Z" fill="#515151"/>
<path d="M9.20833 19.4969C9.0675 19.4969 8.92667 19.4644 8.79667 19.4102C8.66667 19.356 8.5475 19.2802 8.43917 19.1827C8.24417 18.9769 8.125 18.6952 8.125 18.4135C8.125 18.2727 8.1575 18.1319 8.21167 18.0019C8.26584 17.861 8.34167 17.7419 8.43917 17.6444C8.84 17.2435 9.57667 17.2435 9.9775 17.6444C10.1725 17.8502 10.2917 18.1319 10.2917 18.4135C10.2917 18.6952 10.1725 18.9769 9.9775 19.1827C9.77167 19.3777 9.49 19.4969 9.20833 19.4969Z" fill="#515151"/>
<path d="M13.0001 19.4969C12.7184 19.4969 12.4367 19.3777 12.2309 19.1827C12.0359 18.9769 11.9167 18.6952 11.9167 18.4135C11.9167 18.2727 11.9493 18.1319 12.0034 18.0019C12.0576 17.861 12.1334 17.7419 12.2309 17.6444C12.6317 17.2435 13.3684 17.2435 13.7692 17.6444C13.8667 17.7419 13.9426 17.861 13.9967 18.0019C14.0509 18.1319 14.0834 18.2727 14.0834 18.4135C14.0834 18.6952 13.9642 18.9769 13.7692 19.1827C13.5634 19.3777 13.2817 19.4969 13.0001 19.4969Z" fill="#515151"/>
<path d="M16.7916 19.5036C16.5099 19.5036 16.2283 19.3844 16.0224 19.1894C15.9249 19.0919 15.8491 18.9727 15.7949 18.8319C15.7408 18.7019 15.7083 18.5611 15.7083 18.4202C15.7083 18.2794 15.7408 18.1386 15.7949 18.0086C15.8491 17.8677 15.9249 17.7486 16.0224 17.6511C16.2716 17.4019 16.6508 17.2827 16.9974 17.3586C17.0733 17.3694 17.1383 17.3911 17.2033 17.4236C17.2683 17.4452 17.3333 17.4777 17.3983 17.5211C17.4524 17.5536 17.5066 17.6077 17.5608 17.6511C17.7558 17.8569 17.8749 18.1386 17.8749 18.4202C17.8749 18.7019 17.7558 18.9836 17.5608 19.1894C17.3549 19.3844 17.0733 19.5036 16.7916 19.5036Z" fill="#515151"/>
<path d="M22.2084 10.6562H3.79175C3.34758 10.6562 2.97925 10.2879 2.97925 9.84375C2.97925 9.39958 3.34758 9.03125 3.79175 9.03125H22.2084C22.6526 9.03125 23.0209 9.39958 23.0209 9.84375C23.0209 10.2879 22.6526 10.6562 22.2084 10.6562Z" fill="#515151"/>
<path d="M17.3333 24.6432H8.66667C4.7125 24.6432 2.4375 22.3682 2.4375 18.4141V9.20573C2.4375 5.25156 4.7125 2.97656 8.66667 2.97656H17.3333C21.2875 2.97656 23.5625 5.25156 23.5625 9.20573V18.4141C23.5625 22.3682 21.2875 24.6432 17.3333 24.6432ZM8.66667 4.60156C5.56833 4.60156 4.0625 6.1074 4.0625 9.20573V18.4141C4.0625 21.5124 5.56833 23.0182 8.66667 23.0182H17.3333C20.4317 23.0182 21.9375 21.5124 21.9375 18.4141V9.20573C21.9375 6.1074 20.4317 4.60156 17.3333 4.60156H8.66667Z" fill="#515151"/>
</svg>
