<svg width="28" height="28" viewBox="0 0 28 28" fill="none" xmlns="http://www.w3.org/2000/svg">
<g opacity="0.6">
<path d="M9.33398 6.71094C8.85565 6.71094 8.45898 6.31427 8.45898 5.83594V2.33594C8.45898 1.8576 8.85565 1.46094 9.33398 1.46094C9.81232 1.46094 10.209 1.8576 10.209 2.33594V5.83594C10.209 6.31427 9.81232 6.71094 9.33398 6.71094Z" fill="white"/>
<path d="M18.666 6.71094C18.1877 6.71094 17.791 6.31427 17.791 5.83594V2.33594C17.791 1.8576 18.1877 1.46094 18.666 1.46094C19.1443 1.46094 19.541 1.8576 19.541 2.33594V5.83594C19.541 6.31427 19.1443 6.71094 18.666 6.71094Z" fill="white"/>
<path d="M9.91667 16.9128C9.765 16.9128 9.61333 16.8778 9.47333 16.8195C9.32167 16.7611 9.205 16.6795 9.08833 16.5745C8.87833 16.3528 8.75 16.0611 8.75 15.7461C8.75 15.5945 8.785 15.4428 8.84334 15.3028C8.90167 15.1628 8.98333 15.0345 9.08833 14.9178C9.205 14.8128 9.32167 14.7311 9.47333 14.6728C9.89333 14.4978 10.4183 14.5911 10.745 14.9178C10.955 15.1395 11.0833 15.4428 11.0833 15.7461C11.0833 15.8161 11.0717 15.8978 11.06 15.9795C11.0483 16.0495 11.025 16.1195 10.99 16.1895C10.9667 16.2595 10.9317 16.3295 10.885 16.3995C10.85 16.4578 10.7917 16.5161 10.745 16.5745C10.5233 16.7845 10.22 16.9128 9.91667 16.9128Z" fill="white"/>
<path d="M14.0007 16.918C13.849 16.918 13.6973 16.883 13.5573 16.8247C13.4056 16.7663 13.289 16.6846 13.1723 16.5796C12.9623 16.358 12.834 16.0663 12.834 15.7513C12.834 15.5996 12.869 15.448 12.9273 15.308C12.9857 15.168 13.0673 15.0397 13.1723 14.923C13.289 14.818 13.4056 14.7363 13.5573 14.678C13.9773 14.4913 14.5023 14.5963 14.829 14.923C15.039 15.1447 15.1673 15.448 15.1673 15.7513C15.1673 15.8213 15.1557 15.903 15.144 15.9847C15.1323 16.0547 15.109 16.1247 15.074 16.1947C15.0506 16.2647 15.0157 16.3346 14.969 16.4046C14.934 16.463 14.8756 16.5213 14.829 16.5796C14.6073 16.7896 14.304 16.918 14.0007 16.918Z" fill="white"/>
<path d="M18.0827 16.918C17.931 16.918 17.7793 16.883 17.6393 16.8247C17.4877 16.7663 17.371 16.6846 17.2543 16.5796C17.2077 16.5213 17.161 16.463 17.1143 16.4046C17.0677 16.3346 17.0327 16.2647 17.0094 16.1947C16.9744 16.1247 16.951 16.0547 16.9393 15.9847C16.9277 15.903 16.916 15.8213 16.916 15.7513C16.916 15.448 17.0443 15.1447 17.2543 14.923C17.371 14.818 17.4877 14.7363 17.6393 14.678C18.071 14.4913 18.5843 14.5963 18.911 14.923C19.121 15.1447 19.2493 15.448 19.2493 15.7513C19.2493 15.8213 19.2377 15.903 19.226 15.9847C19.2143 16.0547 19.191 16.1247 19.156 16.1947C19.1327 16.2647 19.0977 16.3346 19.051 16.4046C19.016 16.463 18.9577 16.5213 18.911 16.5796C18.6893 16.7896 18.386 16.918 18.0827 16.918Z" fill="white"/>
<path d="M9.91667 20.9984C9.765 20.9984 9.61333 20.9634 9.47333 20.9051C9.33333 20.8468 9.205 20.7651 9.08833 20.6601C8.87833 20.4384 8.75 20.1351 8.75 19.8318C8.75 19.6801 8.785 19.5284 8.84334 19.3884C8.90167 19.2368 8.98333 19.1084 9.08833 19.0034C9.52 18.5718 10.3133 18.5718 10.745 19.0034C10.955 19.2251 11.0833 19.5284 11.0833 19.8318C11.0833 20.1351 10.955 20.4384 10.745 20.6601C10.5233 20.8701 10.22 20.9984 9.91667 20.9984Z" fill="white"/>
<path d="M14.0007 20.9984C13.6973 20.9984 13.394 20.8701 13.1723 20.6601C12.9623 20.4384 12.834 20.1351 12.834 19.8318C12.834 19.6801 12.869 19.5284 12.9273 19.3884C12.9857 19.2368 13.0673 19.1084 13.1723 19.0034C13.604 18.5718 14.3973 18.5718 14.829 19.0034C14.934 19.1084 15.0156 19.2368 15.074 19.3884C15.1323 19.5284 15.1673 19.6801 15.1673 19.8318C15.1673 20.1351 15.039 20.4384 14.829 20.6601C14.6073 20.8701 14.304 20.9984 14.0007 20.9984Z" fill="white"/>
<path d="M18.0827 20.9984C17.7793 20.9984 17.476 20.8701 17.2543 20.6601C17.1493 20.5551 17.0677 20.4268 17.0094 20.2751C16.951 20.1351 16.916 19.9834 16.916 19.8318C16.916 19.6801 16.951 19.5284 17.0094 19.3884C17.0677 19.2368 17.1493 19.1084 17.2543 19.0034C17.5227 18.7351 17.931 18.6068 18.3043 18.6884C18.386 18.7001 18.456 18.7234 18.526 18.7584C18.596 18.7818 18.666 18.8168 18.736 18.8634C18.7943 18.8984 18.8527 18.9568 18.911 19.0034C19.121 19.2251 19.2493 19.5284 19.2493 19.8318C19.2493 20.1351 19.121 20.4384 18.911 20.6601C18.6893 20.8701 18.386 20.9984 18.0827 20.9984Z" fill="white"/>
<path d="M23.9173 11.4766H4.08398C3.60565 11.4766 3.20898 11.0799 3.20898 10.6016C3.20898 10.1232 3.60565 9.72656 4.08398 9.72656H23.9173C24.3957 9.72656 24.7923 10.1232 24.7923 10.6016C24.7923 11.0799 24.3957 11.4766 23.9173 11.4766Z" fill="white"/>
<path d="M18.6667 26.5443H9.33333C5.075 26.5443 2.625 24.0943 2.625 19.8359V9.91927C2.625 5.66094 5.075 3.21094 9.33333 3.21094H18.6667C22.925 3.21094 25.375 5.66094 25.375 9.91927V19.8359C25.375 24.0943 22.925 26.5443 18.6667 26.5443ZM9.33333 4.96094C5.99667 4.96094 4.375 6.5826 4.375 9.91927V19.8359C4.375 23.1726 5.99667 24.7943 9.33333 24.7943H18.6667C22.0033 24.7943 23.625 23.1726 23.625 19.8359V9.91927C23.625 6.5826 22.0033 4.96094 18.6667 4.96094H9.33333Z" fill="white"/>
</g>
</svg>
