<svg width="27" height="78" viewBox="0 0 27 78" fill="none" xmlns="http://www.w3.org/2000/svg">
<path fill-rule="evenodd" clip-rule="evenodd" d="M25.1531 0.565732C24.8933 0.879545 24.6101 1.13902 24.5241 1.14212C24.438 1.14542 24.0407 1.49727 23.6412 1.92423C23.2416 2.35118 22.8634 2.70051 22.8005 2.70051C22.7376 2.70051 22.3178 3.07177 21.8676 3.52531C21.4174 3.97886 20.6805 4.65578 20.2303 5.02936C19.7799 5.40295 19.0109 6.1016 18.5214 6.58193C17.5961 7.48979 16.3884 8.5958 14.9679 9.83591C14.5114 10.2343 13.684 11.0188 13.1293 11.5793C12.5744 12.1397 12.0677 12.5981 12.0033 12.5981C11.9388 12.5981 11.6476 12.8601 11.3563 13.1803C11.0651 13.5006 10.7691 13.7625 10.6986 13.7625C10.6283 13.7625 10.2439 14.1119 9.84434 14.5388C9.4448 14.9658 9.06208 15.3151 8.99385 15.3151C8.92563 15.3151 8.55746 15.6429 8.17587 16.0435C7.7941 16.4442 7.01543 17.1646 6.44541 17.6445C5.8754 18.1245 4.96707 18.9539 4.42692 19.4876C3.52937 20.3743 2.8263 21.0218 0.961464 22.6782C0.597644 23.0015 0.236281 23.2672 0.158225 23.2689C-0.190475 23.2765 0.0699631 23.8375 0.61919 24.2618C0.950691 24.518 1.75695 25.2735 2.41107 25.9405C3.06519 26.6075 3.68851 27.1534 3.79605 27.1534C3.90359 27.1534 4.61441 27.7865 5.3755 28.5605C6.13678 29.3344 7.1774 30.3296 7.68769 30.7723C8.19817 31.215 8.84039 31.7826 9.11462 32.0337C9.38886 32.2849 10.1452 32.9707 10.7954 33.5578C11.4455 34.1448 12.3805 35.0182 12.8732 35.4985C13.9352 36.5337 14.5356 37.0511 14.6751 37.0511C14.7309 37.0511 15.3636 37.6624 16.0813 38.4095C16.7989 39.1567 17.4751 39.768 17.5842 39.768C17.693 39.768 17.7822 39.8554 17.7822 39.9621C17.7822 40.0689 17.8728 40.1562 17.9835 40.1562C18.0943 40.1562 18.5849 40.5709 19.0738 41.078C19.5628 41.5849 20.6408 42.6112 21.4694 43.3584C22.2981 44.1055 23.2322 44.9476 23.545 45.2296C23.8577 45.5116 24.4964 46.0988 24.9641 46.5343C25.4319 46.97 25.8785 47.3288 25.9564 47.3316C26.1713 47.3395 26.1261 44.4663 25.9091 44.3287C25.8052 44.2627 25.7201 43.9084 25.7201 43.541C25.7201 43.1736 25.6351 42.8732 25.5311 42.8732C25.4272 42.8732 25.3421 42.6112 25.3421 42.291C25.3421 41.9707 25.2571 41.7088 25.1531 41.7088C25.0492 41.7088 24.9641 41.5341 24.9641 41.3206C24.9641 41.1071 24.8791 40.9325 24.7751 40.9325C24.6712 40.9325 24.585 40.8234 24.5837 40.6899C24.5791 40.255 22.51 37.8273 22.1439 37.8273C22.0318 37.8273 21.9402 37.74 21.9402 37.6333C21.9402 37.5265 21.8126 37.4392 21.6567 37.4392C21.5008 37.4392 21.3732 37.3519 21.3732 37.2451C21.3732 37.1384 21.5433 37.0511 21.7512 37.0511C21.9591 37.0511 22.1292 36.9851 22.1292 36.9043C22.1292 36.8236 22.373 36.6468 22.6712 36.5113C23.4372 36.1632 24.8456 34.7416 25.1648 33.9944C25.313 33.6476 25.4986 33.3637 25.5772 33.3637C25.6559 33.3637 25.7201 33.1454 25.7201 32.8785C25.7201 32.6117 25.8052 32.3934 25.9091 32.3934C26.0202 32.3934 26.0981 31.718 26.0981 30.7552C26.0981 29.8541 26.0131 29.0631 25.9091 28.9971C25.8052 28.9311 25.7201 28.7241 25.7201 28.5372C25.7201 28.3501 25.55 28.0095 25.3421 27.7803C25.1342 27.5513 24.9641 27.2666 24.9641 27.1476C24.9641 26.8724 24.4869 26.3772 24.2216 26.3772C24.1102 26.3772 24.0191 26.2898 24.0191 26.1831C24.0191 26.0763 23.9305 25.989 23.8222 25.989C23.7139 25.989 23.4427 25.8143 23.2197 25.6009C22.9965 25.3874 22.6599 25.2127 22.4714 25.2127C22.2832 25.2127 22.1292 25.1254 22.1292 25.0187C22.1292 24.9055 21.5028 24.8246 20.6283 24.8246C19.8028 24.8246 19.075 24.9119 19.0107 25.0187C18.9465 25.1254 18.7267 25.2127 18.5222 25.2127C18.085 25.2127 16.4592 26.8146 16.4592 27.2454C16.4592 27.4083 16.3742 27.5416 16.2703 27.5416C16.1663 27.5416 16.0813 27.9782 16.0813 28.5119C16.0813 29.0456 16.1663 29.4823 16.2703 29.4823C16.3742 29.4823 16.4592 29.7006 16.4592 29.9675C16.4592 30.2343 16.5443 30.4526 16.6482 30.4526C16.7522 30.4526 16.8372 30.5462 16.8372 30.6605C16.8372 31.1934 18.0122 31.8913 18.6378 31.7302C18.8811 31.6675 19.2691 31.3436 19.5002 31.0104C19.8673 30.481 19.8926 30.3263 19.7017 29.7841C19.5815 29.4429 19.4832 29.027 19.4832 28.8601C19.4832 28.1331 21.2821 27.6144 21.8347 28.1818C22.723 29.094 23.0282 30.9995 22.4635 32.1063C21.6495 33.7014 20.4524 34.4008 18.5382 34.3999C17.1198 34.3993 15.8966 33.9781 15.1818 33.2442C15.038 33.0965 14.8556 32.9756 14.7768 32.9756C14.6978 32.9756 14.5126 32.7353 14.3653 32.4419C14.2179 32.1484 14.0546 31.8645 14.0027 31.8111C13.777 31.5802 13.4353 30.822 13.4353 30.5524C13.4353 30.3907 13.3502 30.2586 13.2463 30.2586C12.9768 30.2586 13.0114 27.9949 13.2935 27.1672C13.4236 26.7861 13.6999 26.2887 13.9078 26.062C14.1157 25.8351 14.4338 25.4641 14.6146 25.2372C14.9303 24.8413 14.9282 24.8246 14.5649 24.8246C14.1992 24.8246 14.0166 24.8937 13.1072 25.3765C12.5846 25.6539 9.27735 25.6801 9.27735 25.4068C9.27735 25.3001 9.14146 25.2127 8.97514 25.2127C8.58089 25.2127 7.57637 24.1044 7.57637 23.6693C7.57637 23.2577 8.01976 22.7313 8.89936 22.0985C9.4775 21.6824 9.76345 21.623 11.1673 21.6273C12.5319 21.6315 12.9231 21.7105 13.766 22.153C14.879 22.7372 15.1213 22.4981 14.2858 21.6401C14.0259 21.3732 13.8133 21.0198 13.8133 20.8549C13.8133 20.6899 13.7282 20.555 13.6243 20.555C13.5203 20.555 13.4353 20.3419 13.4353 20.0813C13.4353 19.8207 13.3502 19.5536 13.2463 19.4876C12.8364 19.2274 13.2278 16.0914 13.6702 16.0914C13.749 16.0914 13.8133 15.9565 13.8133 15.7916C13.8133 15.6266 14.0259 15.2732 14.2858 15.0063C14.5457 14.7395 14.7583 14.4379 14.7583 14.336C14.7583 14.2341 14.8671 14.1507 15 14.1507C15.1331 14.1507 15.3644 13.976 15.5143 13.7625C15.6641 13.5491 15.938 13.3744 16.123 13.3744C16.3079 13.3744 16.4592 13.2958 16.4592 13.1999C16.4592 13.0307 17.7662 12.7866 18.7272 12.7761C19.5091 12.7677 20.6172 13.0171 20.6172 13.2015C20.6172 13.2966 20.7485 13.3744 20.9092 13.3744C21.5287 13.3744 22.5176 14.7772 22.7797 16.0281C22.9483 16.8322 22.5661 18.1126 21.9772 18.7174C21.0874 19.6311 19.2876 19.0706 19.5507 17.9619C19.6176 17.6803 19.7162 17.2535 19.7703 17.0132C19.83 16.7468 19.7238 16.3876 19.4976 16.0914C19.1895 15.6885 18.9809 15.6118 18.2664 15.6398C17.443 15.672 16.8372 16.0221 16.8372 16.4658C16.8372 16.5801 16.7522 16.6736 16.6482 16.6736C16.5443 16.6736 16.4592 16.8919 16.4592 17.1588C16.4592 17.4256 16.3742 17.644 16.2703 17.644C16.1663 17.644 16.0813 17.9933 16.0813 18.4202C16.0813 18.8472 16.1663 19.1965 16.2703 19.1965C16.3742 19.1965 16.4592 19.4149 16.4592 19.6817C16.4592 19.9486 16.5443 20.1669 16.6482 20.1669C16.7522 20.1669 16.8372 20.2979 16.8372 20.458C16.8372 20.6181 16.9223 20.7491 17.0262 20.7491C17.1302 20.7491 17.2152 20.8653 17.2152 21.0074C17.2152 21.1495 17.4492 21.3895 17.735 21.5407C18.0207 21.6921 18.2973 21.8602 18.3492 21.9143C18.8121 22.3962 21.4163 22.7013 21.6567 22.3017C21.7209 22.1949 21.902 22.1076 22.0591 22.1076C22.7829 22.1076 25.0378 20.1151 25.5239 19.0459C25.6561 18.7552 25.8394 18.3657 25.9312 18.1804C26.1476 17.7431 26.1491 14.927 25.9327 14.927C25.8418 14.927 25.7184 14.6755 25.6585 14.3682C25.5986 14.0608 25.4179 13.6741 25.2569 13.5087C25.0959 13.3434 24.9641 13.1122 24.9641 12.995C24.9641 12.734 23.5039 11.2466 22.8723 10.8643C22.6196 10.7112 22.173 10.4616 21.8799 10.3096L21.3471 10.0335L21.7854 9.7315C22.7249 9.08408 24.5861 6.92505 24.5861 6.48276C24.5861 6.32381 24.6712 6.19379 24.7751 6.19379C24.8791 6.19379 24.9641 6.01912 24.9641 5.80564C24.9641 5.59217 25.0284 5.4175 25.1072 5.4175C25.2782 5.4175 25.7201 4.02893 25.7201 3.49135C25.7201 3.28253 25.8052 3.0576 25.9091 2.99162C26.0131 2.92563 26.0981 2.22193 26.0981 1.4276C26.0981 -0.199489 25.9208 -0.361344 25.1531 0.565732ZM0.0164769 31.6431C0.0164769 32.1911 0.107952 32.9989 0.219649 33.4382C0.723705 35.4189 1.24042 36.883 1.55964 37.2348C1.75034 37.445 1.90645 37.714 1.90645 37.8324C1.90645 37.951 2.55301 38.697 3.34321 39.4901C4.64332 40.7953 4.73329 40.9325 4.2882 40.9325C4.01774 40.9325 3.79642 41.014 3.79642 41.1135C3.79642 41.2131 3.62595 41.3499 3.41767 41.4178C3.2094 41.4858 2.62426 41.9562 2.11737 42.4631C0.634877 43.9458 0.0236587 45.3765 0.0193118 47.3739C0.0177998 48.0881 0.0905636 48.7194 0.181093 48.7768C0.271623 48.8343 0.395228 49.136 0.455896 49.4475C0.581201 50.0909 2.6649 52.3826 3.12454 52.3826C3.28613 52.3826 3.41843 52.47 3.41843 52.5767C3.41843 52.6835 3.58853 52.7708 3.79642 52.7708C4.00432 52.7708 4.17442 52.8581 4.17442 52.9649C4.17442 53.0757 4.74141 53.1589 5.4974 53.1589C6.25339 53.1589 6.82038 53.0757 6.82038 52.9649C6.82038 52.8581 7.07553 52.7708 7.38738 52.7708C7.69922 52.7708 7.95437 52.6835 7.95437 52.5767C7.95437 52.47 8.04225 52.3826 8.1496 52.3826C8.53648 52.3826 9.57256 51.1043 9.82393 50.317C10.5729 47.9708 8.22558 45.0565 6.82775 46.5972C6.40742 47.0604 6.29932 48.2767 6.64688 48.6336C6.92301 48.9171 6.46753 49.6657 6.01885 49.6657C5.83609 49.6657 5.6864 49.753 5.6864 49.8597C5.6864 49.9665 5.47 50.0538 5.2054 50.0538C4.72875 50.0538 3.79642 49.289 3.79642 48.8981C3.79642 48.7865 3.71138 48.6953 3.60743 48.6953C3.49819 48.6953 3.41843 48.0807 3.41843 47.2398C3.41843 46.3989 3.49819 45.7842 3.60743 45.7842C3.71138 45.7842 3.79642 45.6532 3.79642 45.4931C3.79642 45.333 3.88147 45.202 3.98542 45.202C4.08937 45.202 4.17442 45.071 4.17442 44.9109C4.17442 44.7508 4.24643 44.6198 4.3345 44.6198C4.42257 44.6198 4.69114 44.4448 4.93117 44.2309C5.93947 43.3331 8.48583 43.227 9.99951 44.0197C13.0104 45.5972 14.0707 49.968 11.9706 52.1465C11.6326 52.497 11.3563 52.8682 11.3563 52.9713C11.3563 53.2183 11.8683 53.2135 12.0178 52.9649C12.0821 52.8581 12.2996 52.7708 12.5015 52.7708C12.7033 52.7708 12.8683 52.6835 12.8683 52.5767C12.8683 52.47 13.3291 52.3826 13.8921 52.3826C14.5262 52.3826 14.9577 52.2903 15.0261 52.1401C15.1142 51.946 15.1584 51.946 15.2465 52.1401C15.3103 52.2804 15.7086 52.3826 16.1914 52.3826C16.6507 52.3826 17.0262 52.47 17.0262 52.5767C17.0262 52.6835 17.1141 52.7708 17.2215 52.7708C17.4485 52.7708 18.7274 54.0429 18.727 54.2684C18.7265 54.6065 17.8263 55.4585 17.0262 55.8783C16.3659 56.2247 15.8724 56.3227 14.8188 56.3165C13.5519 56.3093 12.3013 55.9704 12.3013 55.6345C12.3013 55.5538 12.1312 55.4878 11.9233 55.4878C11.4417 55.4878 11.4463 55.6943 11.9418 56.3413C12.5054 57.077 13.0573 58.7371 13.0573 59.697C13.0573 60.7884 12.5113 62.2253 11.7816 63.0546C11.5476 63.3203 11.3563 63.6042 11.3563 63.6853C11.3563 63.7665 11.2287 63.8328 11.0728 63.8328C10.9169 63.8328 10.7893 63.9202 10.7893 64.0269C10.7893 64.1336 10.6618 64.221 10.5058 64.221C10.3499 64.221 10.2223 64.3083 10.2223 64.415C10.2223 64.5218 10.0097 64.6091 9.74984 64.6091C9.48997 64.6091 9.27735 64.6964 9.27735 64.8032C9.27735 64.9188 8.55292 64.9973 7.48187 64.9973C6.41083 64.9973 5.6864 64.9188 5.6864 64.8032C5.6864 64.6964 5.55599 64.6091 5.39667 64.6091C5.07291 64.6091 3.79642 63.3758 3.79642 63.0629C3.79642 62.9527 3.71138 62.8625 3.60743 62.8625C3.49724 62.8625 3.41843 62.2156 3.41843 61.3099C3.41843 60.4042 3.49724 59.7573 3.60743 59.7573C3.71138 59.7573 3.79642 59.6424 3.79642 59.5021C3.79642 59.2337 4.93438 58.5929 5.41103 58.5929C5.56431 58.5929 5.95912 58.857 6.28817 59.18C6.7463 59.6296 6.83437 59.8206 6.66446 59.9951C6.35432 60.3135 6.38663 61.6685 6.71247 62.0029C7.13242 62.4344 8.43745 62.3526 8.98856 61.8607C9.66253 61.2589 10.1093 59.9435 9.94527 59.0447C9.78405 58.1629 9.34066 57.2412 8.88726 56.8463C7.91014 55.9949 7.73891 55.8759 7.49095 55.8759C7.3422 55.8759 7.16814 55.7886 7.10388 55.6819C7.03962 55.5751 6.35432 55.4878 5.58075 55.4878C4.76919 55.4878 4.17442 55.5699 4.17442 55.6819C4.17442 55.7886 4.00432 55.8759 3.79642 55.8759C3.58853 55.8759 3.41843 55.9574 3.41843 56.057C3.41843 56.1565 3.23964 56.2963 3.02097 56.3675C2.50406 56.536 0.940296 58.1793 0.608606 58.9028C0.466669 59.2128 0.275214 59.6178 0.183362 59.8031C-0.193877 60.5647 0.167864 63.8328 0.629396 63.8328C0.708207 63.8328 0.772467 63.9883 0.772467 64.1781C0.772467 64.3681 0.942564 64.6493 1.15046 64.8032C1.35836 64.9571 1.52846 65.1987 1.52846 65.34C1.52846 65.6495 2.37233 66.5498 2.66244 66.5498C2.77584 66.5498 3.08126 66.7681 3.34113 67.035C3.601 67.3018 3.87354 67.5215 3.94668 67.5231C4.02001 67.5248 4.19899 67.6034 4.34433 67.6981C4.54807 67.8305 4.29802 68.1847 3.25759 69.2383C2.51446 69.9909 1.90645 70.6981 1.90645 70.8101C1.90645 70.9218 1.8214 71.0135 1.71745 71.0135C1.6135 71.0135 1.52846 71.1881 1.52846 71.4016C1.52846 71.6151 1.4642 71.7897 1.38557 71.7897C1.22266 71.7897 0.902874 72.5214 0.601046 73.5849C0.487458 73.9853 0.309423 74.6026 0.205474 74.9572C-0.0388993 75.7905 -0.0400332 78 0.203962 78C0.306966 78 0.497475 77.8253 0.627316 77.6119C0.757157 77.3984 0.970536 77.2237 1.10151 77.2237C1.2323 77.2237 1.33946 77.1364 1.33946 77.0296C1.33946 76.9229 1.42867 76.8356 1.53753 76.8356C1.64658 76.8356 2.30561 76.2442 3.00226 75.5213C3.6989 74.7986 4.56659 73.9932 4.93041 73.7316C5.29423 73.47 5.97462 72.8606 6.44239 72.3772C6.91016 71.8939 7.59055 71.2479 7.95437 70.9414C8.31819 70.635 9.33027 69.718 10.2032 68.9037C11.0764 68.0894 11.9694 67.2947 12.1877 67.1379C12.4062 66.9809 13.1548 66.2605 13.8515 65.5368C14.5481 64.8131 15.2113 64.221 15.3253 64.221C15.4392 64.221 16.1196 63.6096 16.8372 62.8625C17.5549 62.1153 18.1924 61.504 18.2538 61.504C18.3154 61.504 18.7132 61.1766 19.1379 60.7762C20.5749 59.422 20.9447 59.0802 22.0579 58.078C22.6688 57.528 23.6776 56.5887 24.2998 55.9904C24.922 55.3923 25.5812 54.8537 25.7645 54.794C26.254 54.6344 26.1713 54.0831 25.5916 53.6416C25.313 53.4295 24.8916 53.0596 24.6551 52.8193C24.4187 52.579 24.1768 52.3826 24.1172 52.3826C24.0579 52.3826 23.6374 52.0114 23.183 51.5578C22.7287 51.1043 21.8221 50.2527 21.1683 49.6657C20.5146 49.0786 19.5915 48.24 19.1171 47.8022C18.6427 47.3644 17.9272 46.7094 17.5267 46.3467C17.1264 45.9839 16.3976 45.2942 15.9076 44.8139C15.4173 44.3336 14.7356 43.7222 14.3928 43.4554C14.0499 43.1885 13.228 42.4245 12.5663 41.7573C11.9046 41.0902 11.2955 40.5443 11.2125 40.5443C11.1297 40.5443 10.9392 40.3697 10.7893 40.1562C10.6395 39.9427 10.4484 39.768 10.3647 39.768C10.2809 39.768 9.83943 39.397 9.38338 38.9432C8.60074 38.1644 7.35978 37.0134 5.22165 35.0832C4.15401 34.1192 3.66545 33.6628 1.81743 31.902C1.09282 31.2117 0.391259 30.6467 0.258204 30.6467C0.0932098 30.6467 0.0164769 30.9632 0.0164769 31.6431Z" fill="#515151"/>
</svg>
