<svg width="28" height="50" viewBox="0 0 28 50" fill="none" xmlns="http://www.w3.org/2000/svg">
  <path fill-rule="evenodd" clip-rule="evenodd" d="M0 1.05205C0 1.63074 0.0982535 2.48361 0.218228 2.94754C0.759637 5.03894 1.31465 6.58484 1.65752 6.95635C1.86235 7.17828 2.03003 7.4623 2.03003 7.5873C2.03003 7.7125 2.7245 8.5002 3.57326 9.3377C4.96971 10.7158 5.06634 10.8607 4.58827 10.8607C4.29777 10.8607 4.06006 10.9467 4.06006 11.0518C4.06006 11.157 3.87695 11.3014 3.65324 11.3732C3.42953 11.4449 2.80103 11.9416 2.25658 12.4768C0.664225 14.0424 0.00771398 15.5531 0.00304492 17.6621C0.0014209 18.4162 0.0795768 19.0828 0.176815 19.1434C0.274053 19.2041 0.406818 19.5227 0.471982 19.8516C0.606573 20.5309 2.84468 22.9508 3.33838 22.9508C3.51195 22.9508 3.65405 23.043 3.65405 23.1557C3.65405 23.2684 3.83675 23.3607 4.06006 23.3607C4.28336 23.3607 4.46606 23.4529 4.46606 23.5656C4.46606 23.6826 5.07507 23.7705 5.88708 23.7705C6.69909 23.7705 7.3081 23.6826 7.3081 23.5656C7.3081 23.4529 7.58215 23.3607 7.91711 23.3607C8.25206 23.3607 8.52612 23.2684 8.52612 23.1557C8.52612 23.043 8.62051 22.9508 8.73582 22.9508C9.15137 22.9508 10.2642 21.601 10.5342 20.7697C11.3387 18.2924 8.81743 15.2152 7.31602 16.842C6.86454 17.3311 6.74842 18.6154 7.12174 18.9922C7.41833 19.2916 6.92909 20.082 6.44717 20.082C6.25086 20.082 6.09008 20.1742 6.09008 20.2869C6.09008 20.3996 5.85765 20.4918 5.57344 20.4918C5.06147 20.4918 4.06006 19.6842 4.06006 19.2715C4.06006 19.1537 3.9687 19.0574 3.85705 19.0574C3.73972 19.0574 3.65405 18.4084 3.65405 17.5205C3.65405 16.6326 3.73972 15.9836 3.85705 15.9836C3.9687 15.9836 4.06006 15.8453 4.06006 15.6762C4.06006 15.5072 4.15141 15.3689 4.26306 15.3689C4.37471 15.3689 4.46606 15.2305 4.46606 15.0615C4.46606 14.8924 4.54341 14.7541 4.638 14.7541C4.7326 14.7541 5.02107 14.5693 5.27888 14.3434C6.36191 13.3955 9.09696 13.2834 10.7228 14.1205C13.9568 15.7861 15.0957 20.4012 12.8399 22.7014C12.477 23.0715 12.1802 23.4635 12.1802 23.5723C12.1802 23.8332 12.7301 23.8281 12.8907 23.5656C12.9597 23.4529 13.1934 23.3607 13.4102 23.3607C13.627 23.3607 13.8042 23.2684 13.8042 23.1557C13.8042 23.043 14.2991 22.9508 14.9039 22.9508C15.5849 22.9508 16.0484 22.8533 16.1219 22.6947C16.2165 22.4898 16.264 22.4898 16.3586 22.6947C16.4272 22.8428 16.8549 22.9508 17.3736 22.9508C17.8669 22.9508 18.2703 23.043 18.2703 23.1557C18.2703 23.2684 18.3646 23.3607 18.48 23.3607C18.7238 23.3607 20.0975 24.7039 20.0971 24.942C20.0965 25.299 19.1296 26.1986 18.2703 26.6418C17.561 27.0076 17.0309 27.1111 15.8992 27.1045C14.5385 27.0969 13.1952 26.7391 13.1952 26.3844C13.1952 26.2992 13.0125 26.2295 12.7892 26.2295C12.2719 26.2295 12.2768 26.4475 12.8091 27.1307C13.4144 27.9076 14.0072 29.6604 14.0072 30.674C14.0072 31.8264 13.4207 33.3436 12.6369 34.2193C12.3856 34.4998 12.1802 34.7996 12.1802 34.8852C12.1802 34.9709 12.0431 35.041 11.8757 35.041C11.7082 35.041 11.5712 35.1332 11.5712 35.2459C11.5712 35.3586 11.4341 35.4508 11.2667 35.4508C11.0992 35.4508 10.9622 35.543 10.9622 35.6557C10.9622 35.7684 10.7338 35.8607 10.4546 35.8607C10.1755 35.8607 9.94714 35.9529 9.94714 36.0656C9.94714 36.1877 9.16903 36.2705 8.01861 36.2705C6.86819 36.2705 6.09008 36.1877 6.09008 36.0656C6.09008 35.9529 5.95001 35.8607 5.77888 35.8607C5.43114 35.8607 4.06006 34.5584 4.06006 34.2281C4.06006 34.1117 3.9687 34.0164 3.85705 34.0164C3.7387 34.0164 3.65405 33.3334 3.65405 32.377C3.65405 31.4207 3.7387 30.7377 3.85705 30.7377C3.9687 30.7377 4.06006 30.6164 4.06006 30.4682C4.06006 30.1848 5.28234 29.5082 5.79431 29.5082C5.95894 29.5082 6.38302 29.7871 6.73644 30.1281C7.22852 30.6029 7.32312 30.8045 7.14062 30.9887C6.8075 31.325 6.84221 32.7557 7.19219 33.1088C7.64326 33.5643 9.04499 33.4781 9.63695 32.9586C10.3609 32.3232 10.8408 30.9342 10.6645 29.9852C10.4914 29.0541 10.0151 28.0809 9.52814 27.6639C8.47861 26.765 8.29469 26.6393 8.02835 26.6393C7.86859 26.6393 7.68163 26.5471 7.6126 26.4344C7.54358 26.3217 6.8075 26.2295 5.97661 26.2295C5.10491 26.2295 4.46606 26.3162 4.46606 26.4344C4.46606 26.5471 4.28336 26.6393 4.06006 26.6393C3.83675 26.6393 3.65405 26.7254 3.65405 26.8305C3.65405 26.9357 3.46201 27.0832 3.22714 27.1584C2.67192 27.3363 0.992278 29.0715 0.636008 29.8354C0.483553 30.1627 0.277911 30.5904 0.179251 30.7861C-0.225942 31.5902 0.162605 35.041 0.658338 35.041C0.74299 35.041 0.812011 35.2051 0.812011 35.4055C0.812011 35.6061 0.994714 35.9031 1.21802 36.0656C1.44132 36.2281 1.62402 36.4832 1.62402 36.6324C1.62402 36.9592 2.53043 37.9098 2.84204 37.9098C2.96384 37.9098 3.29189 38.1404 3.57102 38.4221C3.85015 38.7039 4.14288 38.9359 4.22144 38.9375C4.30021 38.9393 4.49245 39.0223 4.64856 39.1223C4.8674 39.2621 4.59882 39.6361 3.48129 40.7486C2.68309 41.5432 2.03003 42.29 2.03003 42.4082C2.03003 42.5262 1.93868 42.6229 1.82703 42.6229C1.71537 42.6229 1.62402 42.8074 1.62402 43.0328C1.62402 43.2582 1.555 43.4426 1.47055 43.4426C1.29556 43.4426 0.952083 44.2152 0.627887 45.3381C0.505883 45.7609 0.314654 46.4127 0.203003 46.7871C-0.0594798 47.667 -0.0606977 50 0.201379 50C0.312015 50 0.516642 49.8156 0.656105 49.5902C0.795568 49.3648 1.02476 49.1803 1.16544 49.1803C1.30592 49.1803 1.42102 49.0881 1.42102 48.9754C1.42102 48.8627 1.51684 48.7705 1.63377 48.7705C1.7509 48.7705 2.45877 48.1461 3.20704 47.3828C3.95531 46.6197 4.88729 45.7693 5.27807 45.493C5.66885 45.2168 6.39966 44.5734 6.90209 44.0629C7.40453 43.5527 8.13534 42.8705 8.52612 42.5469C8.9169 42.2234 10.004 41.2551 10.9416 40.3953C11.8795 39.5354 12.8387 38.6963 13.0732 38.5307C13.3078 38.365 14.1119 37.6043 14.8602 36.8402C15.6085 36.076 16.3208 35.4508 16.4432 35.4508C16.5656 35.4508 17.2964 34.8053 18.0672 34.0164C18.8381 33.2275 19.5228 32.582 19.5888 32.582C19.6549 32.582 20.0823 32.2363 20.5384 31.8135C22.0818 30.3836 22.4791 30.0227 23.6748 28.9645C24.3309 28.3838 25.4145 27.392 26.0828 26.7602C26.7511 26.1287 27.4592 25.56 27.6561 25.4969C28.1819 25.3285 28.0929 24.7463 27.4703 24.2801C27.1711 24.0561 26.7184 23.6656 26.4645 23.4119C26.2105 23.1582 25.9507 22.9508 25.8867 22.9508C25.823 22.9508 25.3713 22.5588 24.8833 22.0799C24.3953 21.601 23.4214 20.7018 22.7193 20.082C22.0171 19.4621 21.0256 18.5766 20.5161 18.1143C20.0065 17.6521 19.238 16.9605 18.8078 16.5775C18.3778 16.1945 17.5951 15.4662 17.0687 14.959C16.5421 14.4518 15.8099 13.8064 15.4416 13.5246C15.0734 13.2428 14.1905 12.4361 13.4798 11.7316C12.7691 11.0273 12.1148 10.4508 12.0257 10.4508C11.9368 10.4508 11.7321 10.2664 11.5712 10.041C11.4102 9.81557 11.2049 9.63115 11.115 9.63115C11.0251 9.63115 10.5509 9.23934 10.061 8.76025C9.22039 7.93791 7.88747 6.72254 5.5909 4.68443C4.44414 3.6666 3.91937 3.18463 1.93441 1.32541C1.1561 0.596517 0.402554 0 0.25964 0C0.082419 0 0 0.334222 0 1.05205Z" fill="#515151" />
</svg>