<svg width="28" height="50" viewBox="0 0 28 50" fill="none" xmlns="http://www.w3.org/2000/svg">
  <path fill-rule="evenodd" clip-rule="evenodd" d="M28 1.05205C28 1.63074 27.9017 2.48361 27.7818 2.94754C27.2404 5.03894 26.6854 6.58484 26.3425 6.95635C26.1377 7.17828 25.97 7.4623 25.97 7.5873C25.97 7.7125 25.2755 8.5002 24.4267 9.3377C23.0303 10.7158 22.9337 10.8607 23.4117 10.8607C23.7022 10.8607 23.9399 10.9467 23.9399 11.0518C23.9399 11.157 24.1231 11.3014 24.3468 11.3732C24.5705 11.4449 25.199 11.9416 25.7434 12.4768C27.3358 14.0424 27.9923 15.5531 27.997 17.6621C27.9986 18.4162 27.9204 19.0828 27.8232 19.1434C27.7259 19.2041 27.5932 19.5227 27.528 19.8516C27.3934 20.5309 25.1553 22.9508 24.6616 22.9508C24.4881 22.9508 24.3459 23.043 24.3459 23.1557C24.3459 23.2684 24.1632 23.3607 23.9399 23.3607C23.7166 23.3607 23.5339 23.4529 23.5339 23.5656C23.5339 23.6826 22.9249 23.7705 22.1129 23.7705C21.3009 23.7705 20.6919 23.6826 20.6919 23.5656C20.6919 23.4529 20.4178 23.3607 20.0829 23.3607C19.7479 23.3607 19.4739 23.2684 19.4739 23.1557C19.4739 23.043 19.3795 22.9508 19.2642 22.9508C18.8486 22.9508 17.7358 21.601 17.4658 20.7697C16.6613 18.2924 19.1826 15.2152 20.684 16.842C21.1355 17.3311 21.2516 18.6154 20.8783 18.9922C20.5817 19.2916 21.0709 20.082 21.5528 20.082C21.7491 20.082 21.9099 20.1742 21.9099 20.2869C21.9099 20.3996 22.1424 20.4918 22.4266 20.4918C22.9385 20.4918 23.9399 19.6842 23.9399 19.2715C23.9399 19.1537 24.0313 19.0574 24.1429 19.0574C24.2603 19.0574 24.3459 18.4084 24.3459 17.5205C24.3459 16.6326 24.2603 15.9836 24.1429 15.9836C24.0313 15.9836 23.9399 15.8453 23.9399 15.6762C23.9399 15.5072 23.8486 15.3689 23.7369 15.3689C23.6253 15.3689 23.5339 15.2305 23.5339 15.0615C23.5339 14.8924 23.4566 14.7541 23.362 14.7541C23.2674 14.7541 22.9789 14.5693 22.7211 14.3434C21.6381 13.3955 18.903 13.2834 17.2772 14.1205C14.0432 15.7861 12.9043 20.4012 15.1601 22.7014C15.523 23.0715 15.8198 23.4635 15.8198 23.5723C15.8198 23.8332 15.2699 23.8281 15.1093 23.5656C15.0403 23.4529 14.8066 23.3607 14.5898 23.3607C14.373 23.3607 14.1958 23.2684 14.1958 23.1557C14.1958 23.043 13.7009 22.9508 13.0961 22.9508C12.4151 22.9508 11.9516 22.8533 11.8781 22.6947C11.7835 22.4898 11.736 22.4898 11.6414 22.6947C11.5728 22.8428 11.1451 22.9508 10.6264 22.9508C10.1331 22.9508 9.72975 23.043 9.72975 23.1557C9.72975 23.2684 9.63535 23.3607 9.52005 23.3607C9.27624 23.3607 7.90252 24.7039 7.90293 24.942C7.90354 25.299 8.87044 26.1986 9.72975 26.6418C10.439 27.0076 10.9691 27.1111 12.1008 27.1045C13.4615 27.0969 14.8048 26.7391 14.8048 26.3844C14.8048 26.2992 14.9875 26.2295 15.2108 26.2295C15.7281 26.2295 15.7232 26.4475 15.1909 27.1307C14.5856 27.9076 13.9928 29.6604 13.9928 30.674C13.9928 31.8264 14.5793 33.3436 15.3631 34.2193C15.6144 34.4998 15.8198 34.7996 15.8198 34.8852C15.8198 34.9709 15.9569 35.041 16.1243 35.041C16.2918 35.041 16.4288 35.1332 16.4288 35.2459C16.4288 35.3586 16.5659 35.4508 16.7333 35.4508C16.9008 35.4508 17.0378 35.543 17.0378 35.6557C17.0378 35.7684 17.2662 35.8607 17.5454 35.8607C17.8245 35.8607 18.0529 35.9529 18.0529 36.0656C18.0529 36.1877 18.831 36.2705 19.9814 36.2705C21.1318 36.2705 21.9099 36.1877 21.9099 36.0656C21.9099 35.9529 22.05 35.8607 22.2211 35.8607C22.5689 35.8607 23.9399 34.5584 23.9399 34.2281C23.9399 34.1117 24.0313 34.0164 24.1429 34.0164C24.2613 34.0164 24.3459 33.3334 24.3459 32.377C24.3459 31.4207 24.2613 30.7377 24.1429 30.7377C24.0313 30.7377 23.9399 30.6164 23.9399 30.4682C23.9399 30.1848 22.7177 29.5082 22.2057 29.5082C22.0411 29.5082 21.617 29.7871 21.2636 30.1281C20.7715 30.6029 20.6769 30.8045 20.8594 30.9887C21.1925 31.325 21.1578 32.7557 20.8078 33.1088C20.3567 33.5643 18.955 33.4781 18.3631 32.9586C17.6391 32.3232 17.1592 30.9342 17.3355 29.9852C17.5086 29.0541 17.9849 28.0809 18.4719 27.6639C19.5214 26.765 19.7053 26.6393 19.9716 26.6393C20.1314 26.6393 20.3184 26.5471 20.3874 26.4344C20.4564 26.3217 21.1925 26.2295 22.0234 26.2295C22.8951 26.2295 23.5339 26.3162 23.5339 26.4344C23.5339 26.5471 23.7166 26.6393 23.9399 26.6393C24.1632 26.6393 24.3459 26.7254 24.3459 26.8305C24.3459 26.9357 24.538 27.0832 24.7729 27.1584C25.3281 27.3363 27.0077 29.0715 27.364 29.8354C27.5164 30.1627 27.7221 30.5904 27.8207 30.7861C28.2259 31.5902 27.8374 35.041 27.3417 35.041C27.257 35.041 27.188 35.2051 27.188 35.4055C27.188 35.6061 27.0053 35.9031 26.782 36.0656C26.5587 36.2281 26.376 36.4832 26.376 36.6324C26.376 36.9592 25.4696 37.9098 25.158 37.9098C25.0362 37.9098 24.7081 38.1404 24.429 38.4221C24.1498 38.7039 23.8571 38.9359 23.7786 38.9375C23.6998 38.9393 23.5075 39.0223 23.3514 39.1223C23.1326 39.2621 23.4012 39.6361 24.5187 40.7486C25.3169 41.5432 25.97 42.29 25.97 42.4082C25.97 42.5262 26.0613 42.6229 26.173 42.6229C26.2846 42.6229 26.376 42.8074 26.376 43.0328C26.376 43.2582 26.445 43.4426 26.5294 43.4426C26.7044 43.4426 27.0479 44.2152 27.3721 45.3381C27.4941 45.7609 27.6853 46.4127 27.797 46.7871C28.0595 47.667 28.0607 50 27.7986 50C27.688 50 27.4834 49.8156 27.3439 49.5902C27.2044 49.3648 26.9752 49.1803 26.8346 49.1803C26.6941 49.1803 26.579 49.0881 26.579 48.9754C26.579 48.8627 26.4832 48.7705 26.3662 48.7705C26.2491 48.7705 25.5412 48.1461 24.793 47.3828C24.0447 46.6197 23.1127 45.7693 22.7219 45.493C22.3311 45.2168 21.6003 44.5734 21.0979 44.0629C20.5955 43.5527 19.8647 42.8705 19.4739 42.5469C19.0831 42.2234 17.996 41.2551 17.0584 40.3953C16.1205 39.5354 15.1613 38.6963 14.9268 38.5307C14.6922 38.365 13.8881 37.6043 13.1398 36.8402C12.3915 36.076 11.6792 35.4508 11.5568 35.4508C11.4344 35.4508 10.7036 34.8053 9.93275 34.0164C9.16195 33.2275 8.47722 32.582 8.41125 32.582C8.34507 32.582 7.91774 32.2363 7.4616 31.8135C5.91817 30.3836 5.52089 30.0227 4.3252 28.9645C3.6691 28.3838 2.58547 27.392 1.91718 26.7602C1.2489 26.1287 0.540827 25.56 0.343914 25.4969C-0.181864 25.3285 -0.0929489 24.7463 0.529659 24.2801C0.828886 24.0561 1.28158 23.6656 1.53554 23.4119C1.7895 23.1582 2.04934 22.9508 2.11329 22.9508C2.17703 22.9508 2.62871 22.5588 3.11673 22.0799C3.60475 21.601 4.57855 20.7018 5.28074 20.082C5.98293 19.4621 6.97439 18.5766 7.48393 18.1143C7.99347 17.6521 8.76204 16.9605 9.1922 16.5775C9.62216 16.1945 10.4049 15.4662 10.9313 14.959C11.4579 14.4518 12.1901 13.8064 12.5584 13.5246C12.9266 13.2428 13.8095 12.4361 14.5202 11.7316C15.2309 11.0273 15.8852 10.4508 15.9743 10.4508C16.0632 10.4508 16.2679 10.2664 16.4288 10.041C16.5898 9.81557 16.7951 9.63115 16.885 9.63115C16.9749 9.63115 17.4491 9.23934 17.939 8.76025C18.7796 7.93791 20.1125 6.72254 22.4091 4.68443C23.5559 3.6666 24.0806 3.18463 26.0656 1.32541C26.8439 0.596517 27.5974 0 27.7404 0C27.9176 0 28 0.334222 28 1.05205Z" fill="#515151" />
</svg>