<svg width="28" height="28" viewBox="0 0 28 28" fill="none" xmlns="http://www.w3.org/2000/svg">
<g opacity="0.6">
<path d="M17.734 26.25H11.141C5.1743 26.25 2.625 23.7007 2.625 17.734V11.141C2.625 5.1743 5.1743 2.625 11.141 2.625H17.734C23.7007 2.625 26.25 5.1743 26.25 11.141V17.734C26.25 23.7007 23.7007 26.25 17.734 26.25ZM11.141 4.27326C6.07535 4.27326 4.27326 6.07535 4.27326 11.141V17.734C4.27326 22.7997 6.07535 24.6017 11.141 24.6017H17.734C22.7997 24.6017 24.6017 22.7997 24.6017 17.734V11.141C24.6017 6.07535 22.7997 4.27326 17.734 4.27326H11.141Z" fill="white"/>
<path fill-rule="evenodd" clip-rule="evenodd" d="M14.2395 8.81466C13.2261 8.9928 12.2565 9.59543 11.6121 10.4477C11.0439 11.1991 10.6918 12.1304 10.5657 13.2148C10.3818 14.7969 11.1027 16.7156 12.2344 17.6564C13.7252 18.8957 15.5531 19.002 17.1211 17.9408C17.5171 17.6728 18.075 17.0977 18.1451 16.8854C18.2997 16.4168 17.926 15.9093 17.4258 15.9089C17.1791 15.9087 17.111 15.9499 16.5573 16.4345C16.16 16.7821 15.8302 16.9658 15.4083 17.0742C14.1106 17.4077 12.8001 16.5268 12.222 14.9323C12.1026 14.6031 12.0806 14.4631 12.0603 13.9039C12.025 12.9306 12.1929 12.2411 12.6299 11.5648C13.245 10.6132 14.3501 10.1235 15.3922 10.3409C15.8393 10.4341 16.2255 10.6534 16.6401 11.0495C17.0912 11.4803 17.168 11.5266 17.4299 11.5266C17.7711 11.5266 18.0305 11.3263 18.1471 10.9728C18.2291 10.7244 18.1668 10.514 17.922 10.2135C17.4551 9.6404 16.6476 9.11793 15.9023 8.90673C15.4933 8.79089 14.6428 8.74379 14.2395 8.81466ZM10.9711 19.5019C10.8894 19.5375 10.7608 19.6474 10.6853 19.7464C10.5716 19.8955 10.5482 19.9721 10.5482 20.1955C10.5482 20.419 10.5716 20.4956 10.6855 20.6449C10.9328 20.9692 10.799 20.9576 14.3063 20.9576C16.4229 20.9576 17.5166 20.9409 17.6062 20.9071C17.9402 20.7812 18.1832 20.3893 18.1237 20.0723C18.0858 19.8704 17.8427 19.5844 17.6354 19.4978C17.4082 19.4029 11.1899 19.4067 10.9711 19.5019Z" fill="white"/>
</g>
</svg>
