<svg width="56" height="40" viewBox="0 0 56 40" fill="none" xmlns="http://www.w3.org/2000/svg">
  <path fill-rule="evenodd" clip-rule="evenodd" d="M10.2498 2.56919C8.06834 5.31233 7.39642 9.00727 9.07981 9.00727C9.60241 9.00727 11.6734 10.5407 13.682 12.4139C16.8146 15.3361 17.3341 16.466 17.3341 20.3561C17.3341 26.8822 14.1484 31.0879 6.39314 34.8001C2.90671 36.469 0.0298183 38.4344 0.00118233 39.1667C-0.0591577 40.69 2.18161 40.1781 8.67276 37.1902C25.6948 29.3522 31.5018 8.14347 18.453 1.47072C14.1985 -0.705994 12.6941 -0.504711 10.2498 2.56919ZM41.4343 1.50005C37.2116 5.67646 37.3639 6.80628 42.8396 11.89C47 15.7529 48.0155 17.3409 48.0155 19.9829C48.0155 26.3603 41.6941 33.8736 34.2968 36.289C32.28 36.9475 30.6294 38.1127 30.6294 38.8794C30.6294 40.0628 31.2307 40.0639 34.6036 38.8865C41.5704 36.4559 44.569 34.5017 49.2683 29.332C57.541 20.2327 58.2252 10.7743 51.1194 3.74655C46.9529 -0.373216 44.0167 -1.05395 41.4343 1.50005Z" fill="#515151" />
</svg>