<svg width="40" height="40" viewBox="0 0 40 40" fill="none" xmlns="http://www.w3.org/2000/svg">
<g opacity="0.5">
<path fill-rule="evenodd" clip-rule="evenodd" d="M10.747 2.91406C9.24955 2.91402 8.00082 2.91398 7.00953 3.04725C5.96321 3.18793 5.01854 3.49738 4.25942 4.25649C3.50031 5.01561 3.19086 5.96028 3.05018 7.0066C2.91691 7.99789 2.91695 9.24658 2.91699 10.744V10.9174C2.91695 12.4148 2.91691 13.6636 3.05018 14.6549C3.19086 15.7012 3.50031 16.6459 4.25942 17.405C5.01854 18.1641 5.96321 18.4735 7.00953 18.6142C8.00082 18.7475 9.24951 18.7474 10.747 18.7474H10.9203C12.4178 18.7474 13.6665 18.7475 14.6578 18.6142C15.7041 18.4735 16.6488 18.1641 17.4079 17.405C18.167 16.6459 18.4765 15.7012 18.6171 14.6549C18.7504 13.6636 18.7504 12.4149 18.7503 10.9174V10.7441C18.7504 9.24663 18.7504 7.99789 18.6171 7.0066C18.4765 5.96028 18.167 5.01561 17.4079 4.25649C16.6488 3.49738 15.7041 3.18793 14.6578 3.04725C13.6665 2.91398 12.4178 2.91402 10.9204 2.91406H10.747ZM6.02719 6.02426C6.24438 5.80707 6.57355 5.62836 7.34265 5.52496C8.14771 5.41672 9.22698 5.41407 10.8337 5.41407C12.4403 5.41407 13.5196 5.41672 14.3247 5.52496C15.0938 5.62836 15.4229 5.80707 15.6401 6.02426C15.8573 6.24146 16.036 6.57062 16.1394 7.33972C16.2477 8.14478 16.2503 9.22405 16.2503 10.8307C16.2503 12.4374 16.2477 13.5167 16.1394 14.3217C16.036 15.0908 15.8573 15.42 15.6401 15.6372C15.4229 15.8544 15.0938 16.0331 14.3247 16.1365C13.5196 16.2447 12.4403 16.2474 10.8337 16.2474C9.22698 16.2474 8.14771 16.2447 7.34265 16.1365C6.57355 16.0331 6.24438 15.8544 6.02719 15.6372C5.81 15.42 5.63129 15.0908 5.52789 14.3217C5.41965 13.5167 5.417 12.4374 5.417 10.8307C5.417 9.22405 5.41965 8.14478 5.52789 7.33972C5.63129 6.57062 5.81 6.24146 6.02719 6.02426Z" fill="#515151"/>
<path fill-rule="evenodd" clip-rule="evenodd" d="M29.0803 21.2474C27.5829 21.2473 26.3342 21.2473 25.3429 21.3806C24.2965 21.5213 23.3519 21.8307 22.5928 22.5898C21.8336 23.3489 21.5242 24.2936 21.3835 25.3399C21.2502 26.3312 21.2503 27.5799 21.2503 29.0774V29.2507C21.2503 30.7482 21.2502 31.9969 21.3835 32.9882C21.5242 34.0345 21.8336 34.9792 22.5928 35.7383C23.3519 36.4974 24.2965 36.8069 25.3429 36.9475C26.3341 37.0808 27.5828 37.0808 29.0802 37.0807H29.2536C30.7511 37.0808 31.9999 37.0808 32.9911 36.9475C34.0374 36.8069 34.9821 36.4974 35.7412 35.7383C36.5003 34.9792 36.8098 34.0345 36.9505 32.9882C37.0837 31.9969 37.0837 30.7483 37.0837 29.2509V29.0774C37.0837 27.58 37.0837 26.3312 36.9505 25.3399C36.8098 24.2936 36.5003 23.3489 35.7412 22.5898C34.9821 21.8307 34.0374 21.5213 32.9911 21.3806C31.9998 21.2473 30.7511 21.2473 29.2537 21.2474H29.0803ZM24.3605 24.3576C24.5777 24.1404 24.9069 23.9617 25.676 23.8583C26.481 23.75 27.5603 23.7474 29.167 23.7474C30.7737 23.7474 31.8529 23.75 32.658 23.8583C33.4271 23.9617 33.7563 24.1404 33.9735 24.3576C34.1907 24.5748 34.3694 24.9039 34.4728 25.673C34.581 26.4781 34.5837 27.5574 34.5837 29.1641C34.5837 30.7707 34.581 31.85 34.4728 32.6551C34.3694 33.4242 34.1907 33.7533 33.9735 33.9705C33.7563 34.1877 33.4271 34.3664 32.658 34.4698C31.8529 34.5781 30.7737 34.5807 29.167 34.5807C27.5603 34.5807 26.481 34.5781 25.676 34.4698C24.9069 34.3664 24.5777 34.1877 24.3605 33.9705C24.1433 33.7533 23.9646 33.4242 23.8612 32.6551C23.753 31.85 23.7503 30.7707 23.7503 29.1641C23.7503 27.5574 23.753 26.4781 23.8612 25.673C23.9646 24.9039 24.1433 24.5748 24.3605 24.3576Z" fill="#515151"/>
<path fill-rule="evenodd" clip-rule="evenodd" d="M10.747 21.2474H10.9203C12.4178 21.2473 13.6665 21.2473 14.6578 21.3806C15.7041 21.5213 16.6488 21.8307 17.4079 22.5898C18.167 23.3489 18.4765 24.2936 18.6171 25.3399C18.7504 26.3312 18.7504 27.5799 18.7503 29.0773V29.2507C18.7504 30.7482 18.7504 31.9969 18.6171 32.9882C18.4765 34.0345 18.167 34.9792 17.4079 35.7383C16.6488 36.4974 15.7041 36.8069 14.6578 36.9475C13.6665 37.0808 12.4178 37.0808 10.9204 37.0807H10.747C9.24958 37.0808 8.00081 37.0808 7.00953 36.9475C5.96321 36.8069 5.01854 36.4974 4.25942 35.7383C3.50031 34.9792 3.19086 34.0345 3.05018 32.9882C2.91691 31.9969 2.91695 30.7482 2.91699 29.2508V29.0774C2.91695 27.5799 2.91691 26.3312 3.05018 25.3399C3.19086 24.2936 3.50031 23.3489 4.25942 22.5898C5.01854 21.8307 5.96321 21.5213 7.00953 21.3806C8.00083 21.2473 9.24953 21.2473 10.747 21.2474ZM7.34265 23.8583C6.57355 23.9617 6.24438 24.1404 6.02719 24.3576C5.81 24.5748 5.63129 24.9039 5.52789 25.673C5.41965 26.4781 5.417 27.5574 5.417 29.1641C5.417 30.7707 5.41965 31.85 5.52789 32.6551C5.63129 33.4242 5.81 33.7533 6.02719 33.9705C6.24438 34.1877 6.57355 34.3664 7.34265 34.4698C8.14771 34.5781 9.22698 34.5807 10.8337 34.5807C12.4403 34.5807 13.5196 34.5781 14.3247 34.4698C15.0938 34.3664 15.4229 34.1877 15.6401 33.9705C15.8573 33.7533 16.036 33.4242 16.1394 32.6551C16.2477 31.85 16.2503 30.7707 16.2503 29.1641C16.2503 27.5574 16.2477 26.4781 16.1394 25.673C16.036 24.9039 15.8573 24.5748 15.6401 24.3576C15.4229 24.1404 15.0938 23.9617 14.3247 23.8583C13.5196 23.75 12.4403 23.7474 10.8337 23.7474C9.22698 23.7474 8.14771 23.75 7.34265 23.8583Z" fill="#515151"/>
<path fill-rule="evenodd" clip-rule="evenodd" d="M29.0803 2.91406C27.5829 2.91402 26.3341 2.91398 25.3429 3.04725C24.2965 3.18793 23.3519 3.49738 22.5928 4.25649C21.8336 5.01561 21.5242 5.96028 21.3835 7.0066C21.2502 7.9979 21.2503 9.2466 21.2503 10.7441V10.9174C21.2503 12.4149 21.2502 13.6636 21.3835 14.6549C21.5242 15.7012 21.8336 16.6459 22.5928 17.405C23.3519 18.1641 24.2965 18.4735 25.3429 18.6142C26.3341 18.7475 27.5828 18.7474 29.0803 18.7474H29.2536C30.7511 18.7474 31.9998 18.7475 32.9911 18.6142C34.0374 18.4735 34.9821 18.1641 35.7412 17.405C36.5003 16.6459 36.8098 15.7012 36.9505 14.6549C37.0837 13.6636 37.0837 12.4149 37.0837 10.9174V10.7441C37.0837 9.24663 37.0837 7.99789 36.9505 7.0066C36.8098 5.96028 36.5003 5.01561 35.7412 4.25649C34.9821 3.49738 34.0374 3.18793 32.9911 3.04725C31.9998 2.91398 30.7511 2.91402 29.2537 2.91406H29.0803ZM24.3605 6.02426C24.5777 5.80707 24.9069 5.62836 25.676 5.52496C26.481 5.41672 27.5603 5.41407 29.167 5.41407C30.7737 5.41407 31.8529 5.41672 32.658 5.52496C33.4271 5.62836 33.7563 5.80707 33.9735 6.02426C34.1907 6.24146 34.3694 6.57062 34.4728 7.33972C34.581 8.14478 34.5837 9.22405 34.5837 10.8307C34.5837 12.4374 34.581 13.5167 34.4728 14.3217C34.3694 15.0908 34.1907 15.42 33.9735 15.6372C33.7563 15.8544 33.4271 16.0331 32.658 16.1365C31.8529 16.2447 30.7737 16.2474 29.167 16.2474C27.5603 16.2474 26.481 16.2447 25.676 16.1365C24.9069 16.0331 24.5777 15.8544 24.3605 15.6372C24.1433 15.42 23.9646 15.0908 23.8612 14.3217C23.753 13.5167 23.7503 12.4374 23.7503 10.8307C23.7503 9.22405 23.753 8.14478 23.8612 7.33972C23.9646 6.57062 24.1433 6.24146 24.3605 6.02426Z" fill="#515151"/>
</g>
</svg>
