<svg width="40" height="40" viewBox="0 0 40 40" fill="none" xmlns="http://www.w3.org/2000/svg">
<path fill-rule="evenodd" clip-rule="evenodd" d="M35 11.3043C35 10.584 34.4244 10 33.7143 10H6.28571C5.57563 10 5 10.584 5 11.3043C5 12.0247 5.57563 12.6087 6.28571 12.6087H33.7143C34.4244 12.6087 35 12.0247 35 11.3043ZM35 20C35 19.2796 34.4244 18.6957 33.7143 18.6957H14.8571C14.1471 18.6957 13.5714 19.2796 13.5714 20C13.5714 20.7204 14.1471 21.3043 14.8571 21.3043H33.7143C34.4244 21.3043 35 20.7204 35 20ZM35 28.6957C35 27.9753 34.4244 27.3913 33.7143 27.3913H25.1429C24.4328 27.3913 23.8571 27.9753 23.8571 28.6957C23.8571 29.416 24.4328 30 25.1429 30H33.7143C34.4244 30 35 29.416 35 28.6957Z" fill="#515151"/>
</svg>
